<svg xmlns="http://www.w3.org/2000/svg" xmlns:xlink="http://www.w3.org/1999/xlink" contentStyleType="text/css" height="831px" preserveAspectRatio="none" style="width:905px;height:831px;background:#FFFFFF;" version="1.1" viewBox="0 0 905 831" width="905px" zoomAndPan="magnify"><defs/><g><rect fill="#FFFFFF" height="620.7422" style="stroke:#181818;stroke-width:1.0;" width="10" x="175.4858" y="112.4297"/><rect fill="#FFFFFF" height="53.2656" style="stroke:#181818;stroke-width:1.0;" width="10" x="624.8086" y="141.5625"/><rect fill="#FFFFFF" height="53.2656" style="stroke:#181818;stroke-width:1.0;" width="10" x="624.8086" y="274.8984"/><rect fill="#FFFFFF" height="53.2656" style="stroke:#181818;stroke-width:1.0;" width="10" x="624.8086" y="408.2344"/><rect fill="#FFFFFF" height="170.4688" style="stroke:#181818;stroke-width:1.0;" width="10" x="624.8086" y="541.5703"/><rect fill="#FFFFFF" height="29.1328" style="stroke:#181818;stroke-width:1.0;" width="10" x="842.751" y="594.8359"/><rect fill="none" height="90.2031" style="stroke:#000000;stroke-width:1.5;" width="522.7114" x="135.1714" y="156.5625"/><rect fill="none" height="90.2031" style="stroke:#000000;stroke-width:1.5;" width="522.7114" x="135.1714" y="289.8984"/><rect fill="none" height="90.2031" style="stroke:#000000;stroke-width:1.5;" width="522.7114" x="135.1714" y="423.2344"/><rect fill="none" height="148.4688" style="stroke:#000000;stroke-width:1.5;" width="762.98" x="135.1714" y="556.5703"/><line style="stroke:#181818;stroke-width:0.5;stroke-dasharray:5.0,5.0;" x1="23" x2="23" y1="81.2969" y2="751.1719"/><line style="stroke:#181818;stroke-width:0.5;stroke-dasharray:5.0,5.0;" x1="180.1714" x2="180.1714" y1="81.2969" y2="751.1719"/><line style="stroke:#181818;stroke-width:0.5;stroke-dasharray:5.0,5.0;" x1="629.7344" x2="629.7344" y1="81.2969" y2="751.1719"/><line style="stroke:#181818;stroke-width:0.5;stroke-dasharray:5.0,5.0;" x1="847.3506" x2="847.3506" y1="81.2969" y2="751.1719"/><text fill="#000000" font-family="sans-serif" font-size="14" lengthAdjust="spacing" textLength="31.9102" x="5" y="77.9951">User</text><ellipse cx="23.9551" cy="13.5" fill="#E2E2F0" rx="8" ry="8" style="stroke:#181818;stroke-width:0.5;"/><path d="M23.9551,21.5 L23.9551,48.5 M10.9551,29.5 L36.9551,29.5 M23.9551,48.5 L10.9551,63.5 M23.9551,48.5 L36.9551,63.5 " fill="none" style="stroke:#181818;stroke-width:0.5;"/><text fill="#000000" font-family="sans-serif" font-size="14" lengthAdjust="spacing" textLength="31.9102" x="5" y="763.167">User</text><ellipse cx="23.9551" cy="774.9688" fill="#E2E2F0" rx="8" ry="8" style="stroke:#181818;stroke-width:0.5;"/><path d="M23.9551,782.9688 L23.9551,809.9688 M10.9551,790.9688 L36.9551,790.9688 M23.9551,809.9688 L10.9551,824.9688 M23.9551,809.9688 L36.9551,824.9688 " fill="none" style="stroke:#181818;stroke-width:0.5;"/><rect fill="#E2E2F0" height="30.2969" rx="2.5" ry="2.5" style="stroke:#181818;stroke-width:0.5;" width="70.6289" x="145.1714" y="50"/><text fill="#000000" font-family="sans-serif" font-size="14" lengthAdjust="spacing" textLength="56.6289" x="152.1714" y="69.9951">Website</text><rect fill="#E2E2F0" height="30.2969" rx="2.5" ry="2.5" style="stroke:#181818;stroke-width:0.5;" width="70.6289" x="145.1714" y="750.1719"/><text fill="#000000" font-family="sans-serif" font-size="14" lengthAdjust="spacing" textLength="56.6289" x="152.1714" y="770.167">Website</text><rect fill="#E2E2F0" height="30.2969" rx="2.5" ry="2.5" style="stroke:#181818;stroke-width:0.5;" width="36.1484" x="611.7344" y="50"/><text fill="#000000" font-family="sans-serif" font-size="14" lengthAdjust="spacing" textLength="22.1484" x="618.7344" y="69.9951">API</text><rect fill="#E2E2F0" height="30.2969" rx="2.5" ry="2.5" style="stroke:#181818;stroke-width:0.5;" width="36.1484" x="611.7344" y="750.1719"/><text fill="#000000" font-family="sans-serif" font-size="14" lengthAdjust="spacing" textLength="22.1484" x="618.7344" y="770.167">API</text><rect fill="#E2E2F0" height="30.2969" rx="2.5" ry="2.5" style="stroke:#181818;stroke-width:0.5;" width="80.8008" x="807.3506" y="50"/><text fill="#000000" font-family="sans-serif" font-size="14" lengthAdjust="spacing" textLength="66.8008" x="814.3506" y="69.9951">Database</text><rect fill="#E2E2F0" height="30.2969" rx="2.5" ry="2.5" style="stroke:#181818;stroke-width:0.5;" width="80.8008" x="807.3506" y="750.1719"/><text fill="#000000" font-family="sans-serif" font-size="14" lengthAdjust="spacing" textLength="66.8008" x="814.3506" y="770.167">Database</text><rect fill="#FFFFFF" height="620.7422" style="stroke:#181818;stroke-width:1.0;" width="10" x="175.4858" y="112.4297"/><rect fill="#FFFFFF" height="53.2656" style="stroke:#181818;stroke-width:1.0;" width="10" x="624.8086" y="141.5625"/><rect fill="#FFFFFF" height="53.2656" style="stroke:#181818;stroke-width:1.0;" width="10" x="624.8086" y="274.8984"/><rect fill="#FFFFFF" height="53.2656" style="stroke:#181818;stroke-width:1.0;" width="10" x="624.8086" y="408.2344"/><rect fill="#FFFFFF" height="170.4688" style="stroke:#181818;stroke-width:1.0;" width="10" x="624.8086" y="541.5703"/><rect fill="#FFFFFF" height="29.1328" style="stroke:#181818;stroke-width:1.0;" width="10" x="842.751" y="594.8359"/><polygon fill="#181818" points="163.4858,108.4297,173.4858,112.4297,163.4858,116.4297,167.4858,112.4297" style="stroke:#181818;stroke-width:1.0;"/><line style="stroke:#181818;stroke-width:1.0;" x1="23.9551" x2="169.4858" y1="112.4297" y2="112.4297"/><text fill="#000000" font-family="sans-serif" font-size="13" lengthAdjust="spacing" textLength="73.7407" x="30.9551" y="107.3638">"About Me"</text><polygon fill="#181818" points="612.8086,137.5625,622.8086,141.5625,612.8086,145.5625,616.8086,141.5625" style="stroke:#181818;stroke-width:1.0;"/><line style="stroke:#181818;stroke-width:1.0;" x1="185.4858" x2="618.8086" y1="141.5625" y2="141.5625"/><text fill="#000000" font-family="sans-serif" font-size="13" lengthAdjust="spacing" textLength="153.5054" x="192.4858" y="136.4966">Get Quote [/v1/quote()]</text><path d="M135.1714,156.5625 L199.6143,156.5625 L199.6143,163.6953 L189.6143,173.6953 L135.1714,173.6953 L135.1714,156.5625 " fill="#EEEEEE" style="stroke:#000000;stroke-width:1.5;"/><rect fill="none" height="90.2031" style="stroke:#000000;stroke-width:1.5;" width="522.7114" x="135.1714" y="156.5625"/><text fill="#000000" font-family="sans-serif" font-size="13" font-weight="bold" lengthAdjust="spacing" textLength="19.4429" x="150.1714" y="169.6294">alt</text><text fill="#000000" font-family="sans-serif" font-size="11" font-weight="bold" lengthAdjust="spacing" textLength="91.7275" x="214.6143" y="168.7729">[API Available]</text><polygon fill="#181818" points="196.4858,190.8281,186.4858,194.8281,196.4858,198.8281,192.4858,194.8281" style="stroke:#181818;stroke-width:1.0;"/><line style="stroke:#181818;stroke-width:1.0;" x1="190.4858" x2="628.8086" y1="194.8281" y2="194.8281"/><text fill="#000000" font-family="sans-serif" font-size="13" lengthAdjust="spacing" textLength="88.7085" x="202.4858" y="189.7622">returns quote</text><line style="stroke:#000000;stroke-width:1.0;stroke-dasharray:2.0,2.0;" x1="135.1714" x2="657.8828" y1="203.8281" y2="203.8281"/><text fill="#000000" font-family="sans-serif" font-size="11" font-weight="bold" lengthAdjust="spacing" textLength="107.4004" x="140.1714" y="214.0386">[API Unavailable]</text><polygon fill="#181818" points="196.4858,234.7656,186.4858,238.7656,196.4858,242.7656,192.4858,238.7656" style="stroke:#181818;stroke-width:1.0;"/><line style="stroke:#181818;stroke-width:1.0;stroke-dasharray:2.0,2.0;" x1="190.4858" x2="628.8086" y1="238.7656" y2="238.7656"/><text fill="#000000" font-family="sans-serif" font-size="13" lengthAdjust="spacing" textLength="52.7681" x="202.4858" y="233.6997">APIError</text><polygon fill="#181818" points="612.8086,270.8984,622.8086,274.8984,612.8086,278.8984,616.8086,274.8984" style="stroke:#181818;stroke-width:1.0;"/><line style="stroke:#181818;stroke-width:1.0;" x1="185.4858" x2="618.8086" y1="274.8984" y2="274.8984"/><text fill="#000000" font-family="sans-serif" font-size="13" lengthAdjust="spacing" textLength="322.3213" x="192.4858" y="269.8325">Get User Information [/v1/name/{numToReturn}]</text><path d="M135.1714,289.8984 L199.6143,289.8984 L199.6143,297.0313 L189.6143,307.0313 L135.1714,307.0313 L135.1714,289.8984 " fill="#EEEEEE" style="stroke:#000000;stroke-width:1.5;"/><rect fill="none" height="90.2031" style="stroke:#000000;stroke-width:1.5;" width="522.7114" x="135.1714" y="289.8984"/><text fill="#000000" font-family="sans-serif" font-size="13" font-weight="bold" lengthAdjust="spacing" textLength="19.4429" x="150.1714" y="302.9653">alt</text><text fill="#000000" font-family="sans-serif" font-size="11" font-weight="bold" lengthAdjust="spacing" textLength="91.7275" x="214.6143" y="302.1089">[API Available]</text><polygon fill="#181818" points="196.4858,324.1641,186.4858,328.1641,196.4858,332.1641,192.4858,328.1641" style="stroke:#181818;stroke-width:1.0;"/><line style="stroke:#181818;stroke-width:1.0;" x1="190.4858" x2="628.8086" y1="328.1641" y2="328.1641"/><text fill="#000000" font-family="sans-serif" font-size="13" lengthAdjust="spacing" textLength="177.0234" x="202.4858" y="323.0981">returns [ { name, about } ]</text><line style="stroke:#000000;stroke-width:1.0;stroke-dasharray:2.0,2.0;" x1="135.1714" x2="657.8828" y1="337.1641" y2="337.1641"/><text fill="#000000" font-family="sans-serif" font-size="11" font-weight="bold" lengthAdjust="spacing" textLength="107.4004" x="140.1714" y="347.3745">[API Unavailable]</text><polygon fill="#181818" points="196.4858,368.1016,186.4858,372.1016,196.4858,376.1016,192.4858,372.1016" style="stroke:#181818;stroke-width:1.0;"/><line style="stroke:#181818;stroke-width:1.0;stroke-dasharray:2.0,2.0;" x1="190.4858" x2="628.8086" y1="372.1016" y2="372.1016"/><text fill="#000000" font-family="sans-serif" font-size="13" lengthAdjust="spacing" textLength="52.7681" x="202.4858" y="367.0356">APIError</text><polygon fill="#181818" points="612.8086,404.2344,622.8086,408.2344,612.8086,412.2344,616.8086,408.2344" style="stroke:#181818;stroke-width:1.0;"/><line style="stroke:#181818;stroke-width:1.0;" x1="185.4858" x2="618.8086" y1="408.2344" y2="408.2344"/><text fill="#000000" font-family="sans-serif" font-size="13" lengthAdjust="spacing" textLength="298.4541" x="192.4858" y="403.1685">Get Positive Adjectives [/v1/positiveadjective]</text><path d="M135.1714,423.2344 L199.6143,423.2344 L199.6143,430.3672 L189.6143,440.3672 L135.1714,440.3672 L135.1714,423.2344 " fill="#EEEEEE" style="stroke:#000000;stroke-width:1.5;"/><rect fill="none" height="90.2031" style="stroke:#000000;stroke-width:1.5;" width="522.7114" x="135.1714" y="423.2344"/><text fill="#000000" font-family="sans-serif" font-size="13" font-weight="bold" lengthAdjust="spacing" textLength="19.4429" x="150.1714" y="436.3013">alt</text><text fill="#000000" font-family="sans-serif" font-size="11" font-weight="bold" lengthAdjust="spacing" textLength="91.7275" x="214.6143" y="435.4448">[API Available]</text><polygon fill="#181818" points="196.4858,457.5,186.4858,461.5,196.4858,465.5,192.4858,461.5" style="stroke:#181818;stroke-width:1.0;"/><line style="stroke:#181818;stroke-width:1.0;" x1="190.4858" x2="628.8086" y1="461.5" y2="461.5"/><text fill="#000000" font-family="sans-serif" font-size="13" lengthAdjust="spacing" textLength="132.2598" x="202.4858" y="456.4341">returns { [ terms ] }</text><line style="stroke:#000000;stroke-width:1.0;stroke-dasharray:2.0,2.0;" x1="135.1714" x2="657.8828" y1="470.5" y2="470.5"/><text fill="#000000" font-family="sans-serif" font-size="11" font-weight="bold" lengthAdjust="spacing" textLength="107.4004" x="140.1714" y="480.7104">[API Unavailable]</text><polygon fill="#181818" points="196.4858,501.4375,186.4858,505.4375,196.4858,509.4375,192.4858,505.4375" style="stroke:#181818;stroke-width:1.0;"/><line style="stroke:#181818;stroke-width:1.0;stroke-dasharray:2.0,2.0;" x1="190.4858" x2="628.8086" y1="505.4375" y2="505.4375"/><text fill="#000000" font-family="sans-serif" font-size="13" lengthAdjust="spacing" textLength="52.7681" x="202.4858" y="500.3716">APIError</text><polygon fill="#181818" points="612.8086,537.5703,622.8086,541.5703,612.8086,545.5703,616.8086,541.5703" style="stroke:#181818;stroke-width:1.0;"/><line style="stroke:#181818;stroke-width:1.0;" x1="185.4858" x2="618.8086" y1="541.5703" y2="541.5703"/><text fill="#000000" font-family="sans-serif" font-size="13" lengthAdjust="spacing" textLength="420.3228" x="192.4858" y="536.5044">Check for comments [/v1/comment/{page}/{numberToReturn}]</text><path d="M135.1714,556.5703 L199.6143,556.5703 L199.6143,563.7031 L189.6143,573.7031 L135.1714,573.7031 L135.1714,556.5703 " fill="#EEEEEE" style="stroke:#000000;stroke-width:1.5;"/><rect fill="none" height="148.4688" style="stroke:#000000;stroke-width:1.5;" width="762.98" x="135.1714" y="556.5703"/><text fill="#000000" font-family="sans-serif" font-size="13" font-weight="bold" lengthAdjust="spacing" textLength="19.4429" x="150.1714" y="569.6372">alt</text><text fill="#000000" font-family="sans-serif" font-size="11" font-weight="bold" lengthAdjust="spacing" textLength="91.7275" x="214.6143" y="568.7808">[API Available]</text><polygon fill="#181818" points="830.751,590.8359,840.751,594.8359,830.751,598.8359,834.751,594.8359" style="stroke:#181818;stroke-width:1.0;"/><line style="stroke:#181818;stroke-width:1.0;" x1="634.8086" x2="836.751" y1="594.8359" y2="594.8359"/><text fill="#000000" font-family="sans-serif" font-size="13" lengthAdjust="spacing" textLength="181.8159" x="641.8086" y="589.77">CheckForComments(userId)</text><polygon fill="#181818" points="645.8086,619.9688,635.8086,623.9688,645.8086,627.9688,641.8086,623.9688" style="stroke:#181818;stroke-width:1.0;"/><line style="stroke:#181818;stroke-width:1.0;stroke-dasharray:2.0,2.0;" x1="639.8086" x2="846.751" y1="623.9688" y2="623.9688"/><text fill="#000000" font-family="sans-serif" font-size="13" lengthAdjust="spacing" textLength="183.9424" x="651.8086" y="618.9028">CommentData {comments}</text><polygon fill="#181818" points="196.4858,649.1016,186.4858,653.1016,196.4858,657.1016,192.4858,653.1016" style="stroke:#181818;stroke-width:1.0;"/><line style="stroke:#181818;stroke-width:1.0;" x1="190.4858" x2="623.8086" y1="653.1016" y2="653.1016"/><text fill="#000000" font-family="sans-serif" font-size="13" lengthAdjust="spacing" textLength="325.584" x="202.4858" y="648.0356">returns {commentid, username, comment, page}</text><line style="stroke:#000000;stroke-width:1.0;stroke-dasharray:2.0,2.0;" x1="135.1714" x2="898.1514" y1="662.1016" y2="662.1016"/><text fill="#000000" font-family="sans-serif" font-size="11" font-weight="bold" lengthAdjust="spacing" textLength="107.4004" x="140.1714" y="672.312">[API Unavailable]</text><polygon fill="#181818" points="196.4858,693.0391,186.4858,697.0391,196.4858,701.0391,192.4858,697.0391" style="stroke:#181818;stroke-width:1.0;"/><line style="stroke:#181818;stroke-width:1.0;stroke-dasharray:2.0,2.0;" x1="190.4858" x2="623.8086" y1="697.0391" y2="697.0391"/><text fill="#000000" font-family="sans-serif" font-size="13" lengthAdjust="spacing" textLength="52.7681" x="202.4858" y="691.9731">APIError</text><polygon fill="#181818" points="34.9551,729.1719,24.9551,733.1719,34.9551,737.1719,30.9551,733.1719" style="stroke:#181818;stroke-width:1.0;"/><line style="stroke:#181818;stroke-width:1.0;" x1="28.9551" x2="179.4858" y1="733.1719" y2="733.1719"/><text fill="#000000" font-family="sans-serif" font-size="13" lengthAdjust="spacing" textLength="127.5308" x="40.9551" y="728.106">Display Information</text><!--SRC=[jLD1IyCm5BxdLpnssc1IlEum69lA3i8KXuUnmslxr6YRr2GjIEb_DqdJsie46PfJtak-xttVUmacHYhOQrAiG6LumWiK1XufrjpGABVQRKVn1Wt6g8an1uUBPOTQm6GLozB0BKqO9ePNQAYdP67Z09Po0JTauAwKDdE8giletMsdi-CNqXN6p0k0LOKympWZvg9XJKMcL4A3nxEKHd3AjD_0Nc3F07PvbY6DJLmf9HKZaRBJOhtThNYIAaV3fMXr2ymfgaMPFyXxBwKvsy81Qd1qSq3VnmQEVsNeb9-Tj2bUMRxqbLmHqgsb8XnWbp_RKMqz6LAvXYCq_pQSzGibRs3d0edCSn8c-0XHL1VuJ8qVKapgztFgjIpxHn-ANKkr3gMcfNqMstJcR_U4_ITnsIxmfbh5BTWTGDs9RlpbGPD693-sEC1vEWSdfNr08Ja7R_tSLdyRsA3lxYyiOCDraU77y5CCCU7-9m00]--></g></svg>