<svg xmlns="http://www.w3.org/2000/svg" xmlns:xlink="http://www.w3.org/1999/xlink" contentStyleType="text/css" height="540px" preserveAspectRatio="none" style="width:384px;height:540px;background:#FFFFFF;" version="1.1" viewBox="0 0 384 540" width="384px" zoomAndPan="magnify"><defs/><g><!--class Player--><g id="elem_Player"><rect codeLine="1" fill="#F1F1F1" height="162.0781" id="Player" rx="2.5" ry="2.5" style="stroke:#181818;stroke-width:0.5;" width="141.9785" x="121.2" y="7"/><ellipse cx="166.1565" cy="23" fill="#ADD1B2" rx="11" ry="11" style="stroke:#181818;stroke-width:1.0;"/><path d="M169.1253,28.6406 Q168.5472,28.9375 167.9065,29.0781 Q167.2659,29.2344 166.5628,29.2344 Q164.0628,29.2344 162.7347,27.5938 Q161.4222,25.9375 161.4222,22.8125 Q161.4222,19.6875 162.7347,18.0313 Q164.0628,16.375 166.5628,16.375 Q167.2659,16.375 167.9065,16.5313 Q168.5628,16.6875 169.1253,16.9844 L169.1253,19.7031 Q168.5003,19.125 167.9065,18.8594 Q167.3128,18.5781 166.6878,18.5781 Q165.344,18.5781 164.6565,19.6563 Q163.969,20.7188 163.969,22.8125 Q163.969,24.9063 164.6565,25.9844 Q165.344,27.0469 166.6878,27.0469 Q167.3128,27.0469 167.9065,26.7813 Q168.5003,26.5 169.1253,25.9219 L169.1253,28.6406 Z " fill="#000000"/><text fill="#000000" font-family="sans-serif" font-size="14" lengthAdjust="spacing" textLength="43.5654" x="186.6565" y="27.8467">Player</text><line style="stroke:#181818;stroke-width:0.5;" x1="122.2" x2="262.1785" y1="39" y2="39"/><rect fill="none" height="6" style="stroke:#C82930;stroke-width:1.0;" width="6" x="129.2" y="49.6484"/><text fill="#000000" font-family="sans-serif" font-size="14" lengthAdjust="spacing" textLength="114.3926" x="141.2" y="55.9951">eye-color: string</text><rect fill="none" height="6" style="stroke:#C82930;stroke-width:1.0;" width="6" x="129.2" y="65.9453"/><text fill="#000000" font-family="sans-serif" font-size="14" lengthAdjust="spacing" textLength="115.9785" x="141.2" y="72.292">hair-color: string</text><rect fill="none" height="6" style="stroke:#C82930;stroke-width:1.0;" width="6" x="129.2" y="82.2422"/><text fill="#000000" font-family="sans-serif" font-size="14" lengthAdjust="spacing" textLength="106.1416" x="141.2" y="88.5889">hair_length: int</text><rect fill="none" height="6" style="stroke:#C82930;stroke-width:1.0;" width="6" x="129.2" y="98.5391"/><text fill="#000000" font-family="sans-serif" font-size="14" lengthAdjust="spacing" textLength="53.498" x="141.2" y="104.8857">age: int</text><rect fill="none" height="6" style="stroke:#C82930;stroke-width:1.0;" width="6" x="129.2" y="114.8359"/><text fill="#000000" font-family="sans-serif" font-size="14" lengthAdjust="spacing" textLength="105.2598" x="141.2" y="121.1826">experience: int</text><rect fill="none" height="6" style="stroke:#C82930;stroke-width:1.0;" width="6" x="129.2" y="131.1328"/><text fill="#000000" font-family="sans-serif" font-size="14" lengthAdjust="spacing" textLength="74.4297" x="141.2" y="137.4795">race: Race</text><rect fill="none" height="6" style="stroke:#C82930;stroke-width:1.0;" width="6" x="129.2" y="147.4297"/><text fill="#000000" font-family="sans-serif" font-size="14" lengthAdjust="spacing" textLength="80.7529" x="141.2" y="153.7764">class: Class</text><line style="stroke:#181818;stroke-width:0.5;" x1="122.2" x2="262.1785" y1="161.0781" y2="161.0781"/></g><!--class Stats--><g id="elem_Stats"><rect codeLine="12" fill="#F1F1F1" height="96.8906" id="Stats" rx="2.5" ry="2.5" style="stroke:#181818;stroke-width:0.5;" width="134.6367" x="124.87" y="436.27"/><ellipse cx="170.0692" cy="452.27" fill="#ADD1B2" rx="11" ry="11" style="stroke:#181818;stroke-width:1.0;"/><path d="M173.038,457.9106 Q172.4598,458.2075 171.8192,458.3481 Q171.1786,458.5044 170.4755,458.5044 Q167.9755,458.5044 166.6473,456.8638 Q165.3348,455.2075 165.3348,452.0825 Q165.3348,448.9575 166.6473,447.3013 Q167.9755,445.645 170.4755,445.645 Q171.1786,445.645 171.8192,445.8013 Q172.4755,445.9575 173.038,446.2544 L173.038,448.9731 Q172.413,448.395 171.8192,448.1294 Q171.2255,447.8481 170.6005,447.8481 Q169.2567,447.8481 168.5692,448.9263 Q167.8817,449.9888 167.8817,452.0825 Q167.8817,454.1763 168.5692,455.2544 Q169.2567,456.3169 170.6005,456.3169 Q171.2255,456.3169 171.8192,456.0513 Q172.413,455.77 173.038,455.1919 L173.038,457.9106 Z " fill="#000000"/><text fill="#000000" font-family="sans-serif" font-size="14" lengthAdjust="spacing" textLength="35.7383" x="190.5692" y="457.1167">Stats</text><line style="stroke:#181818;stroke-width:0.5;" x1="125.87" x2="258.5067" y1="468.27" y2="468.27"/><rect fill="none" height="6" style="stroke:#C82930;stroke-width:1.0;" width="6" x="132.87" y="478.9184"/><text fill="#000000" font-family="sans-serif" font-size="14" lengthAdjust="spacing" textLength="78.0801" x="144.87" y="485.2651">strngth: int</text><rect fill="none" height="6" style="stroke:#C82930;stroke-width:1.0;" width="6" x="132.87" y="495.2153"/><text fill="#000000" font-family="sans-serif" font-size="14" lengthAdjust="spacing" textLength="108.6367" x="144.87" y="501.562">intelligence: int</text><rect fill="none" height="6" style="stroke:#C82930;stroke-width:1.0;" width="6" x="132.87" y="511.5122"/><text fill="#000000" font-family="sans-serif" font-size="14" lengthAdjust="spacing" textLength="81.1426" x="144.87" y="517.8589">wisdom: int</text><line style="stroke:#181818;stroke-width:0.5;" x1="125.87" x2="258.5067" y1="525.1606" y2="525.1606"/></g><!--class Race--><g id="elem_Race"><rect codeLine="17" fill="#F1F1F1" height="113.1875" id="Race" rx="2.5" ry="2.5" style="stroke:#181818;stroke-width:0.5;" width="172.3711" x="7" y="246.08"/><ellipse cx="71.627" cy="262.08" fill="#ADD1B2" rx="11" ry="11" style="stroke:#181818;stroke-width:1.0;"/><path d="M74.5957,267.7206 Q74.0176,268.0175 73.377,268.1581 Q72.7363,268.3144 72.0332,268.3144 Q69.5332,268.3144 68.2051,266.6738 Q66.8926,265.0175 66.8926,261.8925 Q66.8926,258.7675 68.2051,257.1113 Q69.5332,255.455 72.0332,255.455 Q72.7363,255.455 73.377,255.6112 Q74.0332,255.7675 74.5957,256.0644 L74.5957,258.7831 Q73.9707,258.205 73.377,257.9394 Q72.7832,257.6581 72.1582,257.6581 Q70.8145,257.6581 70.127,258.7363 Q69.4395,259.7988 69.4395,261.8925 Q69.4395,263.9863 70.127,265.0644 Q70.8145,266.1269 72.1582,266.1269 Q72.7832,266.1269 73.377,265.8613 Q73.9707,265.58 74.5957,265.0019 L74.5957,267.7206 Z " fill="#000000"/><text fill="#000000" font-family="sans-serif" font-size="14" lengthAdjust="spacing" textLength="34.6172" x="92.127" y="266.9267">Race</text><line style="stroke:#181818;stroke-width:0.5;" x1="8" x2="178.3711" y1="278.08" y2="278.08"/><rect fill="none" height="6" style="stroke:#C82930;stroke-width:1.0;" width="6" x="15" y="288.7284"/><text fill="#000000" font-family="sans-serif" font-size="14" lengthAdjust="spacing" textLength="89.0586" x="27" y="295.0751">name: string</text><rect fill="none" height="6" style="stroke:#C82930;stroke-width:1.0;" width="6" x="15" y="305.0253"/><text fill="#000000" font-family="sans-serif" font-size="14" lengthAdjust="spacing" textLength="127.1963" x="27" y="311.372">description: string</text><rect fill="none" height="6" style="stroke:#C82930;stroke-width:1.0;" width="6" x="15" y="321.3222"/><text fill="#000000" font-family="sans-serif" font-size="14" lengthAdjust="spacing" textLength="146.3711" x="27" y="327.6689">pointy_ears: boolean</text><rect fill="none" height="6" style="stroke:#C82930;stroke-width:1.0;" width="6" x="15" y="337.6191"/><text fill="#000000" font-family="sans-serif" font-size="14" lengthAdjust="spacing" textLength="116.6963" x="27" y="343.9657">race_stats: Stats</text><line style="stroke:#181818;stroke-width:0.5;" x1="8" x2="178.3711" y1="351.2675" y2="351.2675"/></g><!--class Class--><g id="elem_Class"><rect codeLine="27" fill="#F1F1F1" height="96.8906" id="Class" rx="2.5" ry="2.5" style="stroke:#181818;stroke-width:0.5;" width="154.7891" x="214.79" y="254.23"/><ellipse cx="269.5185" cy="270.23" fill="#ADD1B2" rx="11" ry="11" style="stroke:#181818;stroke-width:1.0;"/><path d="M272.4873,275.8706 Q271.9091,276.1675 271.2685,276.3081 Q270.6279,276.4644 269.9248,276.4644 Q267.4248,276.4644 266.0966,274.8237 Q264.7841,273.1675 264.7841,270.0425 Q264.7841,266.9175 266.0966,265.2612 Q267.4248,263.605 269.9248,263.605 Q270.6279,263.605 271.2685,263.7612 Q271.9248,263.9175 272.4873,264.2144 L272.4873,266.9331 Q271.8623,266.355 271.2685,266.0894 Q270.6748,265.8081 270.0498,265.8081 Q268.706,265.8081 268.0185,266.8862 Q267.331,267.9487 267.331,270.0425 Q267.331,272.1362 268.0185,273.2144 Q268.706,274.2769 270.0498,274.2769 Q270.6748,274.2769 271.2685,274.0112 Q271.8623,273.73 272.4873,273.1519 L272.4873,275.8706 Z " fill="#000000"/><text fill="#000000" font-family="sans-serif" font-size="14" lengthAdjust="spacing" textLength="36.832" x="290.0185" y="275.0767">Class</text><line style="stroke:#181818;stroke-width:0.5;" x1="215.79" x2="368.5791" y1="286.23" y2="286.23"/><rect fill="none" height="6" style="stroke:#C82930;stroke-width:1.0;" width="6" x="222.79" y="296.8784"/><text fill="#000000" font-family="sans-serif" font-size="14" lengthAdjust="spacing" textLength="90.6514" x="234.79" y="303.2251">name: String</text><rect fill="none" height="6" style="stroke:#C82930;stroke-width:1.0;" width="6" x="222.79" y="313.1753"/><text fill="#000000" font-family="sans-serif" font-size="14" lengthAdjust="spacing" textLength="128.7891" x="234.79" y="319.522">description: String</text><rect fill="none" height="6" style="stroke:#C82930;stroke-width:1.0;" width="6" x="222.79" y="329.4722"/><text fill="#000000" font-family="sans-serif" font-size="14" lengthAdjust="spacing" textLength="120.8047" x="234.79" y="335.8189">class_stats: Stats</text><line style="stroke:#181818;stroke-width:0.5;" x1="215.79" x2="368.5791" y1="343.1206" y2="343.1206"/></g><!--link Player to Race--><g id="link_Player_Race"><path codeLine="24" d="M154.76,169.43 C142.93,194.83 130.12,222.34 119.27,245.65 " fill="none" id="Player-Race" style="stroke:#181818;stroke-width:1.0;"/><text fill="#000000" font-family="sans-serif" font-size="13" lengthAdjust="spacing" textLength="16.4023" x="141.19" y="212.1469">Elf</text></g><!--link Race to Stats--><g id="link_Race_Stats"><path codeLine="25" d="M100.6,359.71 C104.17,375.41 109.43,392.06 117.19,406.27 C122.92,416.78 130.48,426.88 138.59,436.11 " fill="none" id="Race-Stats" style="stroke:#181818;stroke-width:1.0;"/><text fill="#000000" font-family="sans-serif" font-size="13" lengthAdjust="spacing" textLength="121.7925" x="118.19" y="402.3369">Race-specific stats</text></g><!--link Class to Stats--><g id="link_Class_Stats"><path codeLine="32" d="M271.69,351.43 C263.68,368.97 254.06,388.81 244.19,406.27 C238.61,416.14 232.19,426.4 225.81,436.1 " fill="none" id="Class-Stats" style="stroke:#181818;stroke-width:1.0;"/><text fill="#000000" font-family="sans-serif" font-size="13" lengthAdjust="spacing" textLength="121.9194" x="254.19" y="402.3369">class-specific stats</text></g><!--link Player to Class--><g id="link_Player_Class"><path codeLine="36" d="M229.99,169.43 C243.38,197.89 258,228.99 269.71,253.88 " fill="none" id="Player-Class" style="stroke:#181818;stroke-width:1.0;"/><text fill="#000000" font-family="sans-serif" font-size="13" lengthAdjust="spacing" textLength="48.4199" x="252.19" y="212.1469">Warrior</text></g><!--SRC=[TP11RWCX34NtdC8Nu09ie-wZpgBBaKESYIK28uFKZAhSlM2QPAPHDi3_Wl-VyG5pXdt0XUJ705YWXQnF8Oc3N8JZfEuPMTxOOw0ubRC3ZaLDdEWfw3gJC4M_yWIR-gohIjyO7EpQPipD63LWA5XoPwgDsugwKmWyRNE_EH_JfUlRNqfhwI4HBxI1FrBsmdFX53V-d6h0CX9AfJga50ZZWtlC3SjrkWRR_yvQRNBm4KwcdQmT-aKLUIRF9_QWh-yJwiHhkE4DtChNb_yXDEZHg5TUAbUak_xXNoZ2INu1]--></g></svg>