<svg xmlns="http://www.w3.org/2000/svg" xmlns:xlink="http://www.w3.org/1999/xlink" contentStyleType="text/css" height="589px" preserveAspectRatio="none" style="width:573px;height:589px;background:#FFFFFF;" version="1.1" viewBox="0 0 573 589" width="573px" zoomAndPan="magnify"><defs/><g><rect fill="#FFFFFF" height="378.7266" style="stroke:#181818;stroke-width:1.0;" width="10" x="175.4858" y="112.4297"/><rect fill="#FFFFFF" height="358.5938" style="stroke:#181818;stroke-width:1.0;" width="10" x="346.0303" y="141.5625"/><rect fill="#FFFFFF" height="242.0625" style="stroke:#181818;stroke-width:1.0;" width="10" x="351.0303" y="258.0938"/><rect fill="#FFFFFF" height="87.3984" style="stroke:#181818;stroke-width:1.0;" width="10" x="356.0303" y="374.625"/><rect fill="#FFFFFF" height="29.1328" style="stroke:#181818;stroke-width:1.0;" width="10" x="521.6255" y="170.6953"/><rect fill="#FFFFFF" height="29.1328" style="stroke:#181818;stroke-width:1.0;" width="10" x="521.6255" y="287.2266"/><rect fill="#FFFFFF" height="29.1328" style="stroke:#181818;stroke-width:1.0;" width="10" x="521.6255" y="403.7578"/><line style="stroke:#181818;stroke-width:0.5;stroke-dasharray:5.0,5.0;" x1="23" x2="23" y1="81.2969" y2="509.1563"/><line style="stroke:#181818;stroke-width:0.5;stroke-dasharray:5.0,5.0;" x1="180.1714" x2="180.1714" y1="81.2969" y2="509.1563"/><line style="stroke:#181818;stroke-width:0.5;stroke-dasharray:5.0,5.0;" x1="350.9561" x2="350.9561" y1="81.2969" y2="509.1563"/><line style="stroke:#181818;stroke-width:0.5;stroke-dasharray:5.0,5.0;" x1="526.2251" x2="526.2251" y1="81.2969" y2="509.1563"/><text fill="#000000" font-family="sans-serif" font-size="14" lengthAdjust="spacing" textLength="31.9102" x="5" y="77.9951">User</text><ellipse cx="23.9551" cy="13.5" fill="#E2E2F0" rx="8" ry="8" style="stroke:#181818;stroke-width:0.5;"/><path d="M23.9551,21.5 L23.9551,48.5 M10.9551,29.5 L36.9551,29.5 M23.9551,48.5 L10.9551,63.5 M23.9551,48.5 L36.9551,63.5 " fill="none" style="stroke:#181818;stroke-width:0.5;"/><text fill="#000000" font-family="sans-serif" font-size="14" lengthAdjust="spacing" textLength="31.9102" x="5" y="521.1514">User</text><ellipse cx="23.9551" cy="532.9531" fill="#E2E2F0" rx="8" ry="8" style="stroke:#181818;stroke-width:0.5;"/><path d="M23.9551,540.9531 L23.9551,567.9531 M10.9551,548.9531 L36.9551,548.9531 M23.9551,567.9531 L10.9551,582.9531 M23.9551,567.9531 L36.9551,582.9531 " fill="none" style="stroke:#181818;stroke-width:0.5;"/><rect fill="#E2E2F0" height="30.2969" rx="2.5" ry="2.5" style="stroke:#181818;stroke-width:0.5;" width="70.6289" x="145.1714" y="50"/><text fill="#000000" font-family="sans-serif" font-size="14" lengthAdjust="spacing" textLength="56.6289" x="152.1714" y="69.9951">Website</text><rect fill="#E2E2F0" height="30.2969" rx="2.5" ry="2.5" style="stroke:#181818;stroke-width:0.5;" width="70.6289" x="145.1714" y="508.1563"/><text fill="#000000" font-family="sans-serif" font-size="14" lengthAdjust="spacing" textLength="56.6289" x="152.1714" y="528.1514">Website</text><rect fill="#E2E2F0" height="30.2969" rx="2.5" ry="2.5" style="stroke:#181818;stroke-width:0.5;" width="36.1484" x="332.9561" y="50"/><text fill="#000000" font-family="sans-serif" font-size="14" lengthAdjust="spacing" textLength="22.1484" x="339.9561" y="69.9951">API</text><rect fill="#E2E2F0" height="30.2969" rx="2.5" ry="2.5" style="stroke:#181818;stroke-width:0.5;" width="36.1484" x="332.9561" y="508.1563"/><text fill="#000000" font-family="sans-serif" font-size="14" lengthAdjust="spacing" textLength="22.1484" x="339.9561" y="528.1514">API</text><rect fill="#E2E2F0" height="30.2969" rx="2.5" ry="2.5" style="stroke:#181818;stroke-width:0.5;" width="80.8008" x="486.2251" y="50"/><text fill="#000000" font-family="sans-serif" font-size="14" lengthAdjust="spacing" textLength="66.8008" x="493.2251" y="69.9951">Database</text><rect fill="#E2E2F0" height="30.2969" rx="2.5" ry="2.5" style="stroke:#181818;stroke-width:0.5;" width="80.8008" x="486.2251" y="508.1563"/><text fill="#000000" font-family="sans-serif" font-size="14" lengthAdjust="spacing" textLength="66.8008" x="493.2251" y="528.1514">Database</text><rect fill="#FFFFFF" height="378.7266" style="stroke:#181818;stroke-width:1.0;" width="10" x="175.4858" y="112.4297"/><rect fill="#FFFFFF" height="358.5938" style="stroke:#181818;stroke-width:1.0;" width="10" x="346.0303" y="141.5625"/><rect fill="#FFFFFF" height="242.0625" style="stroke:#181818;stroke-width:1.0;" width="10" x="351.0303" y="258.0938"/><rect fill="#FFFFFF" height="87.3984" style="stroke:#181818;stroke-width:1.0;" width="10" x="356.0303" y="374.625"/><rect fill="#FFFFFF" height="29.1328" style="stroke:#181818;stroke-width:1.0;" width="10" x="521.6255" y="170.6953"/><rect fill="#FFFFFF" height="29.1328" style="stroke:#181818;stroke-width:1.0;" width="10" x="521.6255" y="287.2266"/><rect fill="#FFFFFF" height="29.1328" style="stroke:#181818;stroke-width:1.0;" width="10" x="521.6255" y="403.7578"/><polygon fill="#181818" points="163.4858,108.4297,173.4858,112.4297,163.4858,116.4297,167.4858,112.4297" style="stroke:#181818;stroke-width:1.0;"/><line style="stroke:#181818;stroke-width:1.0;" x1="23.9551" x2="169.4858" y1="112.4297" y2="112.4297"/><text fill="#000000" font-family="sans-serif" font-size="13" lengthAdjust="spacing" textLength="73.7407" x="30.9551" y="107.3638">"About Me"</text><polygon fill="#181818" points="334.0303,137.5625,344.0303,141.5625,334.0303,145.5625,338.0303,141.5625" style="stroke:#181818;stroke-width:1.0;"/><line style="stroke:#181818;stroke-width:1.0;" x1="185.4858" x2="340.0303" y1="141.5625" y2="141.5625"/><text fill="#000000" font-family="sans-serif" font-size="13" lengthAdjust="spacing" textLength="66.8218" x="192.4858" y="136.4966">Get Quote</text><polygon fill="#181818" points="509.6255,166.6953,519.6255,170.6953,509.6255,174.6953,513.6255,170.6953" style="stroke:#181818;stroke-width:1.0;"/><line style="stroke:#181818;stroke-width:1.0;" x1="356.0303" x2="515.6255" y1="170.6953" y2="170.6953"/><text fill="#000000" font-family="sans-serif" font-size="13" lengthAdjust="spacing" textLength="79.6123" x="363.0303" y="165.6294">Fetch Quote</text><polygon fill="#181818" points="367.0303,195.8281,357.0303,199.8281,367.0303,203.8281,363.0303,199.8281" style="stroke:#181818;stroke-width:1.0;"/><line style="stroke:#181818;stroke-width:1.0;stroke-dasharray:2.0,2.0;" x1="361.0303" x2="525.6255" y1="199.8281" y2="199.8281"/><text fill="#000000" font-family="sans-serif" font-size="13" lengthAdjust="spacing" textLength="70.5605" x="373.0303" y="194.7622">QuoteData</text><polygon fill="#181818" points="196.4858,224.9609,186.4858,228.9609,196.4858,232.9609,192.4858,228.9609" style="stroke:#181818;stroke-width:1.0;"/><line style="stroke:#181818;stroke-width:1.0;" x1="190.4858" x2="345.0303" y1="228.9609" y2="228.9609"/><text fill="#000000" font-family="sans-serif" font-size="13" lengthAdjust="spacing" textLength="70.5605" x="202.4858" y="223.895">QuoteData</text><polygon fill="#181818" points="339.0303,254.0938,349.0303,258.0938,339.0303,262.0938,343.0303,258.0938" style="stroke:#181818;stroke-width:1.0;"/><line style="stroke:#181818;stroke-width:1.0;" x1="185.4858" x2="345.0303" y1="258.0938" y2="258.0938"/><text fill="#000000" font-family="sans-serif" font-size="13" lengthAdjust="spacing" textLength="136.5444" x="192.4858" y="253.0278">Get User Information</text><polygon fill="#181818" points="509.6255,283.2266,519.6255,287.2266,509.6255,291.2266,513.6255,287.2266" style="stroke:#181818;stroke-width:1.0;"/><line style="stroke:#181818;stroke-width:1.0;" x1="361.0303" x2="515.6255" y1="287.2266" y2="287.2266"/><text fill="#000000" font-family="sans-serif" font-size="13" lengthAdjust="spacing" textLength="100.7627" x="368.0303" y="282.1606">Fetch UserData</text><polygon fill="#181818" points="372.0303,312.3594,362.0303,316.3594,372.0303,320.3594,368.0303,316.3594" style="stroke:#181818;stroke-width:1.0;"/><line style="stroke:#181818;stroke-width:1.0;stroke-dasharray:2.0,2.0;" x1="366.0303" x2="525.6255" y1="316.3594" y2="316.3594"/><text fill="#000000" font-family="sans-serif" font-size="13" lengthAdjust="spacing" textLength="60.6709" x="378.0303" y="311.2935">UserData</text><polygon fill="#181818" points="196.4858,341.4922,186.4858,345.4922,196.4858,349.4922,192.4858,345.4922" style="stroke:#181818;stroke-width:1.0;"/><line style="stroke:#181818;stroke-width:1.0;" x1="190.4858" x2="350.0303" y1="345.4922" y2="345.4922"/><text fill="#000000" font-family="sans-serif" font-size="13" lengthAdjust="spacing" textLength="60.6709" x="202.4858" y="340.4263">UserData</text><polygon fill="#181818" points="344.0303,370.625,354.0303,374.625,344.0303,378.625,348.0303,374.625" style="stroke:#181818;stroke-width:1.0;"/><line style="stroke:#181818;stroke-width:1.0;" x1="185.4858" x2="350.0303" y1="374.625" y2="374.625"/><text fill="#000000" font-family="sans-serif" font-size="13" lengthAdjust="spacing" textLength="134.6655" x="192.4858" y="369.5591">Check for comments</text><polygon fill="#181818" points="509.6255,399.7578,519.6255,403.7578,509.6255,407.7578,513.6255,403.7578" style="stroke:#181818;stroke-width:1.0;"/><line style="stroke:#181818;stroke-width:1.0;" x1="366.0303" x2="515.6255" y1="403.7578" y2="403.7578"/><text fill="#000000" font-family="sans-serif" font-size="13" lengthAdjust="spacing" textLength="136.5952" x="373.0303" y="398.6919">Check for Comments</text><polygon fill="#181818" points="377.0303,428.8906,367.0303,432.8906,377.0303,436.8906,373.0303,432.8906" style="stroke:#181818;stroke-width:1.0;"/><line style="stroke:#181818;stroke-width:1.0;stroke-dasharray:2.0,2.0;" x1="371.0303" x2="525.6255" y1="432.8906" y2="432.8906"/><text fill="#000000" font-family="sans-serif" font-size="13" lengthAdjust="spacing" textLength="94.7324" x="383.0303" y="427.8247">CommentData</text><polygon fill="#181818" points="196.4858,458.0234,186.4858,462.0234,196.4858,466.0234,192.4858,462.0234" style="stroke:#181818;stroke-width:1.0;"/><line style="stroke:#181818;stroke-width:1.0;" x1="190.4858" x2="350.0303" y1="462.0234" y2="462.0234"/><text fill="#000000" font-family="sans-serif" font-size="13" lengthAdjust="spacing" textLength="94.7324" x="202.4858" y="456.9575">CommentData</text><polygon fill="#181818" points="34.9551,487.1563,24.9551,491.1563,34.9551,495.1563,30.9551,491.1563" style="stroke:#181818;stroke-width:1.0;"/><line style="stroke:#181818;stroke-width:1.0;" x1="28.9551" x2="179.4858" y1="491.1563" y2="491.1563"/><text fill="#000000" font-family="sans-serif" font-size="13" lengthAdjust="spacing" textLength="127.5308" x="40.9551" y="486.0903">Display Information</text><!--SRC=[ZP3B3e8m44Nt_Oe9Utw0XOc1Q5YOwCAu7keO6eMITZ3nxwK4oii72q9fpxqz0qhM1iwMZAZGi9AgmfBXGfbLJ9EzxJ6TV2V8cA4b8LmSmasVYY3OPhfcE50WKB9w8fElxDwERneZs1F3gTRDYKVTJStZaFwI27R4Cf-Jtg5VGDZtjgJR5bTQybszDnxeJtxjW6bvqwP0LhfSfUf2RUCQMm-laVNmt3NEITwXqGIfYu9AjdzCXq2y2FomxU3LmbzufpGQmOqLGQ9izS3Nv7UFCXt_1W00]--></g></svg>