<svg xmlns="http://www.w3.org/2000/svg" xmlns:xlink="http://www.w3.org/1999/xlink" contentStyleType="text/css" height="531px" preserveAspectRatio="none" style="width:1044px;height:531px;background:#FFFFFF;" version="1.1" viewBox="0 0 1044 531" width="1044px" zoomAndPan="magnify"><defs/><g><rect fill="#FFFFFF" height="320.4609" style="stroke:#181818;stroke-width:1.0;" width="10" x="175.4858" y="112.4297"/><rect fill="#FFFFFF" height="29.1328" style="stroke:#181818;stroke-width:1.0;" width="10" x="624.8086" y="141.5625"/><rect fill="#FFFFFF" height="29.1328" style="stroke:#181818;stroke-width:1.0;" width="10" x="624.8086" y="199.8281"/><rect fill="#FFFFFF" height="29.1328" style="stroke:#181818;stroke-width:1.0;" width="10" x="624.8086" y="258.0938"/><rect fill="#FFFFFF" height="87.3984" style="stroke:#181818;stroke-width:1.0;" width="10" x="624.8086" y="316.3594"/><rect fill="#FFFFFF" height="29.1328" style="stroke:#181818;stroke-width:1.0;" width="10" x="992.6572" y="345.4922"/><line style="stroke:#181818;stroke-width:0.5;stroke-dasharray:5.0,5.0;" x1="23" x2="23" y1="81.2969" y2="450.8906"/><line style="stroke:#181818;stroke-width:0.5;stroke-dasharray:5.0,5.0;" x1="180.1714" x2="180.1714" y1="81.2969" y2="450.8906"/><line style="stroke:#181818;stroke-width:0.5;stroke-dasharray:5.0,5.0;" x1="629.7344" x2="629.7344" y1="81.2969" y2="450.8906"/><line style="stroke:#181818;stroke-width:0.5;stroke-dasharray:5.0,5.0;" x1="997.2568" x2="997.2568" y1="81.2969" y2="450.8906"/><text fill="#000000" font-family="sans-serif" font-size="14" lengthAdjust="spacing" textLength="31.9102" x="5" y="77.9951">User</text><ellipse cx="23.9551" cy="13.5" fill="#E2E2F0" rx="8" ry="8" style="stroke:#181818;stroke-width:0.5;"/><path d="M23.9551,21.5 L23.9551,48.5 M10.9551,29.5 L36.9551,29.5 M23.9551,48.5 L10.9551,63.5 M23.9551,48.5 L36.9551,63.5 " fill="none" style="stroke:#181818;stroke-width:0.5;"/><text fill="#000000" font-family="sans-serif" font-size="14" lengthAdjust="spacing" textLength="31.9102" x="5" y="462.8857">User</text><ellipse cx="23.9551" cy="474.6875" fill="#E2E2F0" rx="8" ry="8" style="stroke:#181818;stroke-width:0.5;"/><path d="M23.9551,482.6875 L23.9551,509.6875 M10.9551,490.6875 L36.9551,490.6875 M23.9551,509.6875 L10.9551,524.6875 M23.9551,509.6875 L36.9551,524.6875 " fill="none" style="stroke:#181818;stroke-width:0.5;"/><rect fill="#E2E2F0" height="30.2969" rx="2.5" ry="2.5" style="stroke:#181818;stroke-width:0.5;" width="70.6289" x="145.1714" y="50"/><text fill="#000000" font-family="sans-serif" font-size="14" lengthAdjust="spacing" textLength="56.6289" x="152.1714" y="69.9951">Website</text><rect fill="#E2E2F0" height="30.2969" rx="2.5" ry="2.5" style="stroke:#181818;stroke-width:0.5;" width="70.6289" x="145.1714" y="449.8906"/><text fill="#000000" font-family="sans-serif" font-size="14" lengthAdjust="spacing" textLength="56.6289" x="152.1714" y="469.8857">Website</text><rect fill="#E2E2F0" height="30.2969" rx="2.5" ry="2.5" style="stroke:#181818;stroke-width:0.5;" width="36.1484" x="611.7344" y="50"/><text fill="#000000" font-family="sans-serif" font-size="14" lengthAdjust="spacing" textLength="22.1484" x="618.7344" y="69.9951">API</text><rect fill="#E2E2F0" height="30.2969" rx="2.5" ry="2.5" style="stroke:#181818;stroke-width:0.5;" width="36.1484" x="611.7344" y="449.8906"/><text fill="#000000" font-family="sans-serif" font-size="14" lengthAdjust="spacing" textLength="22.1484" x="618.7344" y="469.8857">API</text><rect fill="#E2E2F0" height="30.2969" rx="2.5" ry="2.5" style="stroke:#181818;stroke-width:0.5;" width="80.8008" x="957.2568" y="50"/><text fill="#000000" font-family="sans-serif" font-size="14" lengthAdjust="spacing" textLength="66.8008" x="964.2568" y="69.9951">Database</text><rect fill="#E2E2F0" height="30.2969" rx="2.5" ry="2.5" style="stroke:#181818;stroke-width:0.5;" width="80.8008" x="957.2568" y="449.8906"/><text fill="#000000" font-family="sans-serif" font-size="14" lengthAdjust="spacing" textLength="66.8008" x="964.2568" y="469.8857">Database</text><rect fill="#FFFFFF" height="320.4609" style="stroke:#181818;stroke-width:1.0;" width="10" x="175.4858" y="112.4297"/><rect fill="#FFFFFF" height="29.1328" style="stroke:#181818;stroke-width:1.0;" width="10" x="624.8086" y="141.5625"/><rect fill="#FFFFFF" height="29.1328" style="stroke:#181818;stroke-width:1.0;" width="10" x="624.8086" y="199.8281"/><rect fill="#FFFFFF" height="29.1328" style="stroke:#181818;stroke-width:1.0;" width="10" x="624.8086" y="258.0938"/><rect fill="#FFFFFF" height="87.3984" style="stroke:#181818;stroke-width:1.0;" width="10" x="624.8086" y="316.3594"/><rect fill="#FFFFFF" height="29.1328" style="stroke:#181818;stroke-width:1.0;" width="10" x="992.6572" y="345.4922"/><polygon fill="#181818" points="163.4858,108.4297,173.4858,112.4297,163.4858,116.4297,167.4858,112.4297" style="stroke:#181818;stroke-width:1.0;"/><line style="stroke:#181818;stroke-width:1.0;" x1="23.9551" x2="169.4858" y1="112.4297" y2="112.4297"/><text fill="#000000" font-family="sans-serif" font-size="13" lengthAdjust="spacing" textLength="73.7407" x="30.9551" y="107.3638">"About Me"</text><polygon fill="#181818" points="612.8086,137.5625,622.8086,141.5625,612.8086,145.5625,616.8086,141.5625" style="stroke:#181818;stroke-width:1.0;"/><line style="stroke:#181818;stroke-width:1.0;" x1="185.4858" x2="618.8086" y1="141.5625" y2="141.5625"/><text fill="#000000" font-family="sans-serif" font-size="13" lengthAdjust="spacing" textLength="153.5054" x="192.4858" y="136.4966">Get Quote [/v1/quote()]</text><polygon fill="#181818" points="196.4858,166.6953,186.4858,170.6953,196.4858,174.6953,192.4858,170.6953" style="stroke:#181818;stroke-width:1.0;"/><line style="stroke:#181818;stroke-width:1.0;" x1="190.4858" x2="628.8086" y1="170.6953" y2="170.6953"/><text fill="#000000" font-family="sans-serif" font-size="13" lengthAdjust="spacing" textLength="88.7085" x="202.4858" y="165.6294">returns quote</text><polygon fill="#181818" points="612.8086,195.8281,622.8086,199.8281,612.8086,203.8281,616.8086,199.8281" style="stroke:#181818;stroke-width:1.0;"/><line style="stroke:#181818;stroke-width:1.0;" x1="185.4858" x2="618.8086" y1="199.8281" y2="199.8281"/><text fill="#000000" font-family="sans-serif" font-size="13" lengthAdjust="spacing" textLength="322.3213" x="192.4858" y="194.7622">Get User Information [/v1/name/{numToReturn}]</text><polygon fill="#181818" points="196.4858,224.9609,186.4858,228.9609,196.4858,232.9609,192.4858,228.9609" style="stroke:#181818;stroke-width:1.0;"/><line style="stroke:#181818;stroke-width:1.0;" x1="190.4858" x2="628.8086" y1="228.9609" y2="228.9609"/><text fill="#000000" font-family="sans-serif" font-size="13" lengthAdjust="spacing" textLength="177.0234" x="202.4858" y="223.895">returns [ { name, about } ]</text><polygon fill="#181818" points="612.8086,254.0938,622.8086,258.0938,612.8086,262.0938,616.8086,258.0938" style="stroke:#181818;stroke-width:1.0;"/><line style="stroke:#181818;stroke-width:1.0;" x1="185.4858" x2="618.8086" y1="258.0938" y2="258.0938"/><text fill="#000000" font-family="sans-serif" font-size="13" lengthAdjust="spacing" textLength="298.4541" x="192.4858" y="253.0278">Get Positive Adjectives [/v1/positiveadjective]</text><polygon fill="#181818" points="196.4858,283.2266,186.4858,287.2266,196.4858,291.2266,192.4858,287.2266" style="stroke:#181818;stroke-width:1.0;"/><line style="stroke:#181818;stroke-width:1.0;" x1="190.4858" x2="628.8086" y1="287.2266" y2="287.2266"/><text fill="#000000" font-family="sans-serif" font-size="13" lengthAdjust="spacing" textLength="132.2598" x="202.4858" y="282.1606">returns { [ terms ] }</text><polygon fill="#181818" points="612.8086,312.3594,622.8086,316.3594,612.8086,320.3594,616.8086,316.3594" style="stroke:#181818;stroke-width:1.0;"/><line style="stroke:#181818;stroke-width:1.0;" x1="185.4858" x2="618.8086" y1="316.3594" y2="316.3594"/><text fill="#000000" font-family="sans-serif" font-size="13" lengthAdjust="spacing" textLength="420.3228" x="192.4858" y="311.2935">Check for comments [/v1/comment/{page}/{numberToReturn}]</text><polygon fill="#181818" points="980.6572,341.4922,990.6572,345.4922,980.6572,349.4922,984.6572,345.4922" style="stroke:#181818;stroke-width:1.0;"/><line style="stroke:#181818;stroke-width:1.0;" x1="634.8086" x2="986.6572" y1="345.4922" y2="345.4922"/><text fill="#000000" font-family="sans-serif" font-size="13" lengthAdjust="spacing" textLength="136.5952" x="641.8086" y="340.4263">Check for Comments</text><polygon fill="#181818" points="645.8086,370.625,635.8086,374.625,645.8086,378.625,641.8086,374.625" style="stroke:#181818;stroke-width:1.0;"/><line style="stroke:#181818;stroke-width:1.0;stroke-dasharray:2.0,2.0;" x1="639.8086" x2="996.6572" y1="374.625" y2="374.625"/><text fill="#000000" font-family="sans-serif" font-size="13" lengthAdjust="spacing" textLength="333.8486" x="651.8086" y="369.5591">returns { commentid, username, comment, page }</text><polygon fill="#181818" points="196.4858,399.7578,186.4858,403.7578,196.4858,407.7578,192.4858,403.7578" style="stroke:#181818;stroke-width:1.0;"/><line style="stroke:#181818;stroke-width:1.0;" x1="190.4858" x2="628.8086" y1="403.7578" y2="403.7578"/><text fill="#000000" font-family="sans-serif" font-size="13" lengthAdjust="spacing" textLength="333.8486" x="202.4858" y="398.6919">returns { commentid, username, comment, page }</text><polygon fill="#181818" points="34.9551,428.8906,24.9551,432.8906,34.9551,436.8906,30.9551,432.8906" style="stroke:#181818;stroke-width:1.0;"/><line style="stroke:#181818;stroke-width:1.0;" x1="28.9551" x2="179.4858" y1="432.8906" y2="432.8906"/><text fill="#000000" font-family="sans-serif" font-size="13" lengthAdjust="spacing" textLength="127.5308" x="40.9551" y="427.8247">Display Information</text><!--SRC=[bL9BIyGm4BxtLmnxKkXIlFOWBBiWUn1MKJmiFKoxungrIKsc1IdzxoPj-W9bww6GJEPxpDV1Z9M6PqCwA52po4I1ak65KYEOPhNDOJ-xxv0nHKD1uE2mlkrHCQmsgIePxcaLOCQYGgQ1Cl071x2KCTmHmqEfREKOLJVHbpjUNISZqWdRRwQWYKij3RJTmObcpRzAj2RtybNf75aesQb9p2cgPPa_gSUMibaeV8GQ73W4R6Tj85bauw1iILIsu_HEhfjCvwJm3zZN5ngfhHKcdHj8eBbeOVj6sGVO421JUKwIlRg_HNM1PshQH5BI5qBfDs1Ak_Mq8s3Oa_u0wzxDE8FN5wSGIlkZkcHzCGHdQZxSGFftBF-bT8DDudBx4iDEcE8JlwUBCyNu_Xy0]--></g></svg>